<svg width="16" height="16" viewBox="0 0 16 16" fill="none" xmlns="http://www.w3.org/2000/svg">
<path d="M9.30305 3.45577L12.6216 6.4056C13.242 6.95705 13.5522 7.23278 13.6665 7.55836C13.7669 7.84428 13.7669 8.15586 13.6665 8.44178C13.5522 8.76736 13.242 9.04309 12.6216 9.59454L9.30305 12.5444C9.02152 12.7946 8.88076 12.9197 8.76119 12.9242C8.65732 12.9281 8.55758 12.8833 8.49148 12.8031C8.41539 12.7108 8.41539 12.5224 8.41539 12.1458V10.2858C6.79667 10.2858 5.08696 10.8057 3.83855 11.7286C3.18862 12.2091 2.86364 12.4493 2.73987 12.4398C2.61922 12.4306 2.54265 12.3835 2.48005 12.2799C2.41583 12.1737 2.47255 11.8417 2.586 11.1779C3.32265 6.86711 6.28929 5.71436 8.41539 5.71436V3.85439C8.41539 3.47771 8.41539 3.28937 8.49148 3.19704C8.55758 3.11682 8.65732 3.07203 8.76119 3.07592C8.88076 3.08039 9.02152 3.20552 9.30305 3.45577Z" fill="white"/>
</svg>
